PathFileType	4	(X/Y/Z)	/Users/itak/Documents/Research/Walk-IL/dataset/trc/00160_00008.trc
DataRate	CameraRate	NumFrames	NumMarkers	Units	OrigDataRate	OrigDataStartFrame	OrigNumFrames
100.000000	100.000000	4	53	mm	100.000000	489	559
Frame#	Time	RPSI			LPSI			L3			STRN			T10			C7			CLAV			RBAK			LBAK			LSHO			LUPA			LAEL			LAOL			LWTS			LWPS			LFRA			LIFD			LHPS			LHTS			RSHO			RUPA			RAEL			RAOL			RWTS			RWPS			RFRA			RIFD			RHTS			RHPS			RBHD			LFHD			RFHD			LBHD			LHIP			RHIP			RASI			LASI			LKNE			LTHI			LANK			LTIP			LTOE			LMT1			LMT5			LHEE			RKNE			RTHI			RANK			RTIP			RTOE			RMT1			RMT5			RHEE			
		X1	Y1	Z1	X2	Y2	Z2	X3	Y3	Z3	X4	Y4	Z4	X5	Y5	Z5	X6	Y6	Z6	X7	Y7	Z7	X8	Y8	Z8	X9	Y9	Z9	X10	Y10	Z10	X11	Y11	Z11	X12	Y12	Z12	X13	Y13	Z13	X14	Y14	Z14	X15	Y15	Z15	X16	Y16	Z16	X17	Y17	Z17	X18	Y18	Z18	X19	Y19	Z19	X20	Y20	Z20	X21	Y21	Z21	X22	Y22	Z22	X23	Y23	Z23	X24	Y24	Z24	X25	Y25	Z25	X26	Y26	Z26	X27	Y27	Z27	X28	Y28	Z28	X29	Y29	Z29	X30	Y30	Z30	X31	Y31	Z31	X32	Y32	Z32	X33	Y33	Z33	X34	Y34	Z34	X35	Y35	Z35	X36	Y36	Z36	X37	Y37	Z37	X38	Y38	Z38	X39	Y39	Z39	X40	Y40	Z40	X41	Y41	Z41	X42	Y42	Z42	X43	Y43	Z43	X44	Y44	Z44	X45	Y45	Z45	X46	Y46	Z46	X47	Y47	Z47	X48	Y48	Z48	X49	Y49	Z49	X50	Y50	Z50	X51	Y51	Z51	X52	Y52	Z52	X53	Y53	Z53	

490	4.89	995.7687377929688	1041.970092773438	15.09496784210205	996.218017578125	1040.98828125	-108.5270767211914	992.6951293945312	1075.835815429688	-43.80252838134766	1221.847290039062	1317.672485351562	-53.10571670532227	934.1481323242188	1224.71044921875	-48.22283935546875	961.4694213867188	1501.498413085938	-62.45431137084961	1178.330078125	1426.311645507812	-61.21861267089844	921.6279296875	1318.627563476562	49.58687210083008	955.9071044921875	1477.391845703125	-162.6028747558594	1033.265625	1475.404541015625	-242.1277923583984	1019.676208496094	1339.142456054688	-314.0629272460938	1074.493286132812	1125.9052734375	-327.4014282226562	1033.736206054688	1103.229125976562	-253.9973297119141	1234.53466796875	927.3726806640625	-286.4908447265625	1161.8466796875	886.7562255859375	-329.06396484375	1113.265502929688	1020.952209472656	-337.8008117675781	1289.206909179688	752.1539306640625	-256.2966003417969	1198.779174804688	823.7779541015625	-322.2498779296875	1263.790405273438	852.6057739257812	-303.281005859375	1032.282958984375	1488.656127929688	119.3503265380859	1020.321594238281	1420.432495117188	187.9289855957031	1038.785278320312	1131.153076171875	239.8439636230469	1040.561889648438	1123.366088867188	143.0924224853516	1213.666870117188	930.3229370117188	213.6643676757812	1143.646484375	898.9973754882812	258.0288391113281	1076.080322265625	1062.860595703125	256.28125	1260.966796875	750.2494506835938	183.618896484375	1256.16455078125	842.7156372070312	219.5769500732422	1185.607421875	822.441162109375	252.3066711425781	1019.547119140625	1685.04052734375	11.86716747283936	1162.060424804688	1717.559326171875	-149.0491333007812	1183.923095703125	1729.464233398438	-21.63566398620605	987.5523071289062	1680.012817382812	-122.0126800537109	1111.111572265625	991.4398803710938	-227.7619171142578	1154.464477539062	1012.660766601562	137.6521911621094	1230.800048828125	1050.963500976562	80.84922027587891	1222.818725585938	1045.02490234375	-177.806884765625	1131.42578125	498.5314331054688	-187.1761016845703	1134.7802734375	640.2259521484375	-216.9225006103516	1049.92919921875	34.46333694458008	-175.5919189453125	1090.982421875	273.8958435058594	-194.3634948730469	1268.768676757812	34.31611633300781	-162.4232025146484	1223.080810546875	39.46806716918945	-112.4383926391602	1154.388305664062	26.26565551757812	-221.8784637451172	1005.571411132812	38.36940383911133	-102.4516220092773	1160.16015625	513.773681640625	91.51721954345703	1211.591674804688	780.5372314453125	136.00927734375	1037.822631835938	37.95121765136719	74.51259613037109	1162.05126953125	392.0314636230469	68.43174743652344	1261.967407226562	36.80080032348633	48.7330207824707	1207.239501953125	34.62837219238281	0.02233416400849819	1147.174560546875	32.29596710205078	114.6094512939453	988.3020629882812	38.65975952148438	6.478847026824951	
491	4.9	998.1215209960938	1041.945190429688	13.69919681549072	998.7903442382812	1040.837768554688	-109.9085464477539	995.251220703125	1075.582641601562	-45.25574111938477	1224.4619140625	1317.200805664062	-53.88473129272461	936.791259765625	1224.375122070312	-49.84807205200195	964.1038818359375	1501.187133789062	-63.74802780151367	1180.976928710938	1425.852416992188	-61.97636413574219	923.9021606445312	1318.133422851562	47.92437362670898	958.7816772460938	1477.116455078125	-163.9314880371094	1036.4013671875	1475.140258789062	-243.2564697265625	1022.960998535156	1339.002075195312	-315.4219665527344	1077.81201171875	1125.730590820312	-329.02294921875	1036.422973632812	1103.01171875	-255.9602661132812	1237.442016601562	926.9976806640625	-287.4719543457031	1165.033935546875	886.5328979492188	-330.6441650390625	1116.590454101562	1020.750671386719	-339.3882141113281	1291.838623046875	751.731201171875	-257.3348083496094	1201.896606445312	823.524169921875	-323.7285461425781	1266.79541015625	852.3082275390625	-304.3203430175781	1034.506958007812	1488.049194335938	118.3036422729492	1022.159057617188	1419.728149414062	186.7164764404297	1038.888916015625	1130.309936523438	237.435302734375	1042.295288085938	1122.462158203125	140.7851257324219	1209.760864257812	926.00927734375	211.9238891601562	1139.116333007812	896.5045776367188	256.51123046875	1074.921997070312	1061.429321289062	253.8794250488281	1252.352172851562	744.5164184570312	182.1335601806641	1250.05126953125	837.2009887695312	217.8191833496094	1179.155517578125	818.8912353515625	250.87255859375	1021.452514648438	1684.443115234375	10.99399662017822	1163.56298828125	1717.65966796875	-149.9888916015625	1185.573974609375	1729.64404296875	-22.6226806640625	989.3297119140625	1679.322509765625	-122.8243942260742	1113.7431640625	990.932373046875	-228.9449462890625	1156.678100585938	1012.548522949219	136.5299987792969	1233.2373046875	1050.564697265625	79.840576171875	1225.519287109375	1044.310668945312	-178.7730712890625	1129.852905273438	498.2548217773438	-187.5199737548828	1134.318969726562	639.8663330078125	-217.4435729980469	1049.858154296875	34.36556243896484	-175.5914764404297	1089.817016601562	274.0261535644531	-194.6477508544922	1268.71240234375	34.32869720458984	-162.4752807617188	1223.03271484375	39.50232315063477	-112.5111694335938	1154.336669921875	26.13949775695801	-221.9711303710938	1005.530334472656	38.29872131347656	-102.4169692993164	1160.515991210938	513.7317504882812	91.18773651123047	1213.121215820312	780.3155517578125	135.3308715820312	1037.784301757812	37.96673202514648	74.36383819580078	1162.12841796875	392.0251159667969	68.21012878417969	1261.934814453125	36.7598762512207	48.77679824829102	1207.278686523438	34.65471649169922	0.02854044362902641	1147.148193359375	32.32803726196289	114.5606536865234	988.3297119140625	38.66884231567383	6.205445289611816	
492	4.91	1000.406921386719	1041.895263671875	12.38079166412354	1001.21923828125	1040.629638671875	-111.2329940795898	997.738525390625	1075.28515625	-46.65399932861328	1227.020263671875	1316.63525390625	-54.64633560180664	939.3517456054688	1224.054321289062	-51.45724487304688	966.7705688476562	1500.88916015625	-65.02910614013672	1183.60791015625	1425.31396484375	-62.71577453613281	926.1212158203125	1317.646484375	46.27401733398438	961.68408203125	1476.84423828125	-165.2480163574219	1039.567626953125	1474.82080078125	-244.3792266845703	1026.2158203125	1338.786987304688	-316.7445983886719	1081.010375976562	1125.456665039062	-330.6542053222656	1038.89501953125	1102.725830078125	-257.9571228027344	1240.18310546875	926.498046875	-288.4880065917969	1168.047729492188	886.1923828125	-332.2311706542969	1119.75634765625	1020.430725097656	-340.9841613769531	1294.339599609375	751.207763671875	-258.4640502929688	1204.832397460938	823.1447143554688	-325.2284240722656	1269.625244140625	851.907958984375	-305.4186706542969	1036.762329101562	1487.400024414062	117.2915344238281	1024.013061523438	1418.972290039062	185.5355072021484	1038.980712890625	1129.45947265625	235.1693725585938	1044.25390625	1121.486206054688	138.7465362548828	1205.791625976562	921.8282470703125	210.2259063720703	1134.641845703125	894.1559448242188	255.1358795166016	1073.782958984375	1060.093505859375	251.6465606689453	1243.658325195312	739.0383911132812	180.7040557861328	1243.875366210938	831.8761596679688	216.07861328125	1172.760375976562	815.5382080078125	249.5645599365234	1023.380554199219	1683.74609375	10.19754981994629	1165.004638671875	1717.786254882812	-150.8829193115234	1187.200927734375	1729.832275390625	-23.57077980041504	991.0891723632812	1678.547607421875	-123.5549163818359	1116.22607421875	990.3699951171875	-230.0731964111328	1158.883422851562	1012.434875488281	135.4652404785156	1235.629028320312	1050.144897460938	78.85018920898438	1228.112548828125	1043.544555664062	-179.7148590087891	1128.451416015625	497.9796752929688	-187.8822631835938	1133.961669921875	639.4793701171875	-217.9795837402344	1049.784912109375	34.25031280517578	-175.6043548583984	1088.7666015625	274.131591796875	-194.9408416748047	1268.653564453125	34.33708953857422	-162.5179443359375	1222.981689453125	39.53302383422852	-112.5807113647461	1154.285522460938	26.015869140625	-222.0674133300781	1005.488586425781	38.2330207824707	-102.398307800293	1160.847412109375	513.691650390625	90.90164947509766	1214.603881835938	780.1216430664062	134.6722564697266	1037.745727539062	37.97051239013672	74.26039886474609	1162.177001953125	392.0151672363281	68.01903533935547	1261.888427734375	36.72737884521484	48.82214736938477	1207.300415039062	34.68886184692383	0.04600169509649277	1147.113403320312	32.33507537841797	114.5508728027344	988.3433227539062	38.66363906860352	5.986356735229492	
493	4.92	1002.638610839844	1041.84375	11.14848136901855	1003.515747070312	1040.380737304688	-112.4954528808594	1000.168640136719	1074.966552734375	-47.98454284667969	1229.516967773438	1316.004150390625	-55.39275360107422	941.8323364257812	1223.759033203125	-53.04287719726562	969.4547729492188	1500.614990234375	-66.2958984375	1186.213623046875	1424.72314453125	-63.44081878662109	928.2882080078125	1317.185424804688	44.63781356811523	964.5979614257812	1476.590454101562	-166.5528411865234	1042.745361328125	1474.476196289062	-245.4949493408203	1029.43212890625	1338.526611328125	-318.0357971191406	1084.094848632812	1125.120483398438	-332.2784729003906	1041.145385742188	1102.39794921875	-259.9693603515625	1242.752319335938	925.8927001953125	-289.5428771972656	1170.872924804688	885.7710571289062	-333.8252868652344	1122.764038085938	1020.039428710938	-342.5814819335938	1296.657470703125	750.5838012695312	-259.6819763183594	1207.557006835938	822.6659545898438	-326.748291015625	1272.2587890625	851.4139404296875	-306.5743408203125	1039.035034179688	1486.7333984375	116.3073120117188	1025.864013671875	1418.186157226562	184.3802795410156	1039.0419921875	1128.627807617188	233.0309906005859	1046.275146484375	1120.521240234375	136.9415130615234	1201.788452148438	917.82421875	208.5918731689453	1130.239379882812	891.9780883789062	253.8982238769531	1072.645874023438	1058.87548828125	249.5708618164062	1234.958251953125	733.8673095703125	179.3637847900391	1237.68310546875	826.7930908203125	214.3937377929688	1166.45556640625	812.4169921875	248.3922119140625	1025.338500976562	1682.981811523438	9.480091094970703	1166.4140625	1717.953979492188	-151.7393493652344	1188.816772460938	1730.029052734375	-24.47704696655273	992.840576171875	1677.724853515625	-124.2101287841797	1118.592529296875	989.7796630859375	-231.1349334716797	1161.061157226562	1012.322570800781	134.4596252441406	1237.963623046875	1049.7109375	77.88728332519531	1230.603149414062	1042.753051757812	-180.63134765625	1127.270629882812	497.7147216796875	-188.2715759277344	1133.775146484375	639.0765991210938	-218.5336761474609	1049.71435546875	34.12089157104492	-175.6330413818359	1087.867919921875	274.2113342285156	-195.2473907470703	1268.59423828125	34.34109497070312	-162.5499877929688	1222.930297851562	39.56186676025391	-112.644287109375	1154.2373046875	25.89790725708008	-222.1647491455078	1005.450561523438	38.1788215637207	-102.4014739990234	1161.173950195312	513.6446533203125	90.65943908691406	1216.068969726562	779.98974609375	133.9981079101562	1037.708129882812	37.95995712280273	74.20332336425781	1162.218139648438	391.9971923828125	67.85221862792969	1261.83203125	36.7086067199707	48.86881256103516	1207.30517578125	34.73020172119141	0.07396521419286728	1147.071655273438	32.3186149597168	114.578010559082	988.3440551757812	38.64370727539062	5.832847595214844	
